<?xml version="1.0" encoding="utf-8"?>
<!-- Generator: Adobe Illustrator 25.0.0, SVG Export Plug-In . SVG Version: 6.00 Build 0)  -->
<svg version="1.1" id="圖層_1" xmlns="http://www.w3.org/2000/svg" xmlns:xlink="http://www.w3.org/1999/xlink" x="0px" y="0px"
	 viewBox="0 0 270 260" style="enable-background:new 0 0 270 260;" xml:space="preserve">
<g transform="translate(0.000000,260.000000) scale(0.100000,-0.100000)">
	<path d="M1549.3,2449c-25-4-64-16-86-27c-130-67-176-233-139-492c55-374,63-447,76-670c6-115,6-168-2-177c-6-8-33-13-69-13
		c-50,0-59,3-59,18c0,31-20,233-31,317c-28,213-93,445-164,586c-96,192-240,309-380,309c-76,0-123-18-180-71c-124-114-125-311-2-579
		c117-258,191-548,218-861c7-74,10-143,6-152c-4-12-18-17-46-17c-22,0-62-4-88-9s-77-15-113-21c-36-7-76-15-90-20c-14-4-50-15-80-24
		c-79-24-171-78-197-116c-65-95,6-186,194-251c186-64,673-120,1037-119c197,1,597,31,766,58c307,50,480,137,480,240
		c0,112-157,192-496,252l-72,13l-33,71c-18,39-53,100-77,136l-44,65l26,105c110,452,97,919-35,1237
		C1804.3,2392,1687.3,2470,1549.3,2449z M1660.3,2320c49-25,81-72,119-176c111-303,111-744,0-1162c-16-62-26-118-22-125s24-34,46-62
		c84-106,155-289,177-457c10-75,11-100,1-111c-22-27-251-42-636-42c-198,0-389,4-425,8l-65,8v292c0,275-6,358-35,527
		c-15,85-39,201-50,243c-6,20-14,52-19,70c-19,75-82,250-130,365c-70,165-81,204-81,291c0,90,26,144,88,179c50,28,75,28,137-2
		c101-47,210-200,268-376c67-205,102-402,112-641c7-153,16-194,44-202c10-2,58-1,109,3c82,7,123,5,276-16c41-6,51-4,63,11
		c18,25,16,60-3,76c-9,8-37,21-63,29l-46,15l-2,80c-6,162-34,465-61,635c-19,123-27,214-27,305c0,118,2,134,24,171
		C1503.3,2333,1584.3,2359,1660.3,2320z"/>
	<path d="M1664,627c-32-18-43-40-44-85c0-69,37-122,85-122c9,0,27,11,40,25C1808,507,1737,668,1664,627z"/>
	<path d="M1123,573c-48-73,7-198,80-179c35,8,51,40,50,98c-1,65-32,108-78,108C1149,600,1136,594,1123,573z"/>
	<path d="M1450,392c-31-5-70-40-70-64c0-55,100-79,154-37C1595,339,1541,405,1450,392z"/>
</g>
</svg>
